<?xml version="1.0" encoding="UTF-8" standalone="no"?><svg id="svg3006" xmlns:rdf="http://www.w3.org/1999/02/22-rdf-syntax-ns#" xmlns="http://www.w3.org/2000/svg" height="148" width="328" version="1.1" xmlns:cc="http://creativecommons.org/ns#" xmlns:xlink="http://www.w3.org/1999/xlink" xmlns:dc="http://purl.org/dc/elements/1.1/"> <style id="style3010">.style0 {	stroke: #000;	fill: none;}.style3 {	stroke: #ccc;	fill: none;}.style1, .style2 {	writing-mode: lr-tb;	letter-spacing: 0pt;	word-spacing: 0pt;	fill: #000000;	font-family: "Courier New", Courier, monospace;	font-size:	10pt;}.style1 {	text-anchor: start;	text-align: start;}.style2 {	text-anchor: middle;	text-align: center;}</style> <metadata id="metadata3025">  <rdf:RDF>   <cc:Work rdf:about="">    <dc:format>image/svg+xml</dc:format>    <dc:type rdf:resource="http://purl.org/dc/dcmitype/StillImage"/>    <dc:title/>   </cc:Work>  </rdf:RDF> </metadata><!-- Created with SVG-edit - http://svg-edit.googlecode.com/ --> <g id="rectform" transform="translate(-23.5,-36.5)">  <rect id="svg_1" width="146" y="37" x="24" height="26" class="style0"/>  <rect id="svg_2" width="140" y="40" x="27" height="20" class="style0"/> </g> <use id="use3036" xlink:href="#rectform" transform="translate(1,120)" height="0" width="0" y="0" x="0"/> <use id="use3038" xlink:href="#rectform" transform="translate(180,1)" height="0" width="0" y="0" x="0"/> <use id="use3040" xlink:href="#rectform" transform="translate(180,120)" height="0" width="0" y="0" x="0"/> <path id="p_mbus" d="M2.5,74.5,15.5,93.5,15.5,86.5,313.5,86.5,313.5,93.5,326.5,74.5,313.5,56.5,313.5,63.5,15.5,63.5,15.5,56.5,2.5,74.5z" class="style0"/> <path id="p_plink" stroke-linejoin="round" d="M73.5,29.5,84.5,35.5,79.5,35.5,79.5,53.5,84.5,53.5,73.5,59.5,62.5,53.5,67.5,53.5,67.5,35.5,62.5,35.5,73.5,29.5z" class="style0"/> <use id="use3054" xlink:href="#p_plink" transform="translate(0,58)" height="0" width="0" y="0" x="0"/> <use id="use3056" xlink:href="#p_plink" transform="translate(180,0)" height="0" width="0" y="0" x="0"/> <use id="use3058" xlink:href="#p_plink" transform="translate(180,58)" height="0" width="0" y="0" x="0"/> <text id="text3060" class="style2" y="78" x="165">о б щ а я &#160;  ш и н а</text> <text id="text3044" class="style2" y="18" x="74">ПРОЦЕССОР</text> <text id="text3048" class="style2" y="18" x="254">ПАМЯТЬ</text> <text id="text3042" class="style2" y="138" x="72" >УСТРОЙСТВА ВВОДА</text> <text id="svg_5"    class="style2" y="138" x="253">УСТРОЙСТВА ВЫВОДА</text></svg>