<?xml version="1.0" encoding="UTF-8" standalone="no"?>
<svg height="100" width="336"
 xmlns:rdf="http://www.w3.org/1999/02/22-rdf-syntax-ns#"
 xmlns="http://www.w3.org/2000/svg"
 xmlns:cc="http://creativecommons.org/ns#"
 xmlns:xlink="http://www.w3.org/1999/xlink"
 xmlns:dc="http://purl.org/dc/elements/1.1/"
 id="svg3093" version="1.1">
 <style>
.style0 {
	stroke: #000;
	fill: none;
}
.style3 {
	stroke: #ccc;
	fill: none;
}

.style1, .style2 {
	writing-mode: lr-tb;
	letter-spacing: 0pt;
	word-spacing: 0pt;
	fill: #000000;
	font-family: "Courier New", Courier, monospace;
	font-size:	10pt;
}
.style1 {
	text-anchor: start;
	text-align: start;
}
.style2 {
	text-anchor: middle;
	text-align: center;
}
</style>
<metadata id="metadata3098">
  <rdf:RDF>
   <cc:Work rdf:about="">
    <dc:format>image/svg+xml</dc:format>
    <dc:type rdf:resource="http://purl.org/dc/dcmitype/StillImage"/>
    <dc:title/>
   </cc:Work>
  </rdf:RDF>
 </metadata>
 <g id="layer1">
  <polyline id="pl_dgr" points="0,0 0,6 24,6 24,0" transform="translate(102.5,20.5)" class="style0"/>
  <use id="pl_dgr2" xlink:href="#pl_dgr" transform="translate(33,0)"/>
  <use id="pl_dgr3" xlink:href="#pl_dgr" transform="translate(65,0)"/>
  <polyline id="pl_cod" points="114.5,26.5 114.5,36.5 48.5,36.5 48.5,46.5" class="style0"/>
  <polyline id="pl_afs" points="147.5,26.5 147.5,46.5" class="style0"/>
  <polyline id="pl_afd" points="179.5,26.5 179.5,36.5 266.5,36.5 266.5,46.5" class="style0"/>
  <text id="t_oof" x="104" y="16" class="style1">0 1 S S D D</text>
  
  <rect id="r_code" x="10.5" y="46.5" width="74" height="36" class="style3"/>
  <text id="t_code" x="48" y="60" class="style2">код<tspan x="48" y="76">операции</tspan></text>
  
  <rect id="r_af" x="86.5" y="46.5" width="118" height="52" class="style3"/>
  <text id="t_af" x="146" y="60" class="style2">поле адресации<tspan x="146" y="76">операнда</tspan></text>
  <text id="t_afs2" x="146" y="92" class="style2">источника</text>
  <text id="t_afd2" x="266" y="92" class="style2">приёмника</text>
  <use id="t_afd" xlink:href="#t_af" transform="translate(120,0)"/>
  <use id="r_afd" xlink:href="#r_af" transform="translate(120,0)"/>
 </g>
</svg>
